<svg enable-background="new 0 0 269.426 332.936" height="351.652252" viewBox="0 0 317.21985 391.99832" width="284.371846" xmlns="http://www.w3.org/2000/svg"><g transform="matrix(.92973675 0 0 .92973675 -22.313682 -27.573709)"><path d="m365.19318 200.25413c0-94.21544-76.38114-170.596586-170.59659-170.596586-94.21797 0-170.59659 76.381146-170.59659 170.596586 0 63.47304 34.666897 122.00722 86.09927 153.45373h42.74128c-3.09374-50.61049 4.63872-119.42888 27.83737-159.64122-10.82748 0-30.15736 8.5075-42.5298 28.61239 1.54624-16.23868 8.50495-30.15735 13.91741-37.11733-11.59869 2.31873-32.47734 8.50494-39.43731 13.14493 4.63998-14.69116 26.29112-35.56981 40.98355-41.75604-9.2787-6.18748-37.88981-6.9587-51.80849 0 6.18622-13.91868 27.06361-24.74361 66.50093-26.29239-2.32-8.50621-10.05245-21.65113-16.23868-26.29112 11.59996 2.32 22.42489 3.8675 36.34357 16.23868 0-7.7312-.77375-17.01243-2.31998-23.197382 10.05244 5.412472 20.10363 10.826202 27.83736 27.837352 6.18622-8.5062 27.83735-13.91868 43.30101-7.73119 0 0-13.91741 7.73119-17.01242 13.14366 15.46618-3.09121 38.66356.77376 44.84978 8.50622-11.59742 0-26.28986 3.09247-35.56982 11.59869 14.69242 8.50748 44.84978 26.29238 49.48976 50.26225-10.05371-8.50622-23.19991-14.69243-34.02358-15.46493 3.86623 6.18623 5.4112 21.65115 4.63746 27.83736-5.41122-7.73244-17.00989-17.7849-28.60985-20.10489 6.95997 12.37245 10.82366 38.66356 6.95997 52.58351-7.73372-20.10617-20.10617-45.62481-44.84978-52.58351-13.14493 17.78491-37.11733 87.37958-20.87739 131.45434 3.09248-18.55993 20.87739-35.57236 31.70359-44.07603-6.18622 10.05245-16.23994 38.66356-14.69244 54.8997 7.7312-14.69243 17.78365-22.42363 27.83483-27.06361-10.82366 13.14873-16.2374 25.86815-13.14366 45.20056h64.18347c51.12465-31.52503 87.08577-90.21371 87.08577-153.45373z"/><path d="m333.39209 334.39065h-4.85654v-1.62729h11.65694v1.62729h-4.85779v12.94611h-1.94261zm8.45175-1.62729h2.65431l4.59313 12.24833 4.61466-12.24833h2.65431v14.5734h-1.8375v-12.12423h-.0393l-4.55387 12.12423h-1.65514l-4.5526-12.12423h-.0405v12.12423h-1.8375z"/><path d="m30.656045 374.85499c1.537373.11397 3.184922.33179 4.829937.33179 1.537375 0 3.076014-.21782 4.832471-.33179v75.10718c-1.757723-.1089-3.296364-.33179-4.832471-.33179-1.646282 0-3.293829.22289-4.829937.33179zm20.487344 60.28178c4.282865 7.02963 9.222978 11.42266 17.787443 11.42266 8.893721 0 15.263566-7.35634 15.263566-16.03224 0-20.42023-34.369301-11.41761-34.369301-36.23467 0-14.16309 11.20105-21.08254 24.377637-21.08254 5.270634 0 11.639212 1.64754 15.700464 5.27317-1.318293 2.8544-2.084447 5.92661-2.964575 9.00263h-1.096677c-2.307328-5.93169-7.139797-9.55224-13.617283-9.55224-7.57543 0-13.835101 5.05029-13.835101 12.84733 0 20.20242 34.588384 12.07991 34.588384 35.46852 0 15.70046-12.187552 25.03108-27.119329 25.03108-5.382076 0-14.166888-2.3048-17.898884-6.36606 1.097944-3.18618 1.646283-6.48 2.084447-9.7751h1.099209zm58.455671 9.33442c6.69783.22288 13.28676-.21781 19.87443-.4407 3.5129-.1089 6.91691-.5496 10.43108-.98397-.11016 1.20686-.32925 2.19589-.32925 3.29509 0 1.09289.21909 2.19589.32925 3.29005h-39.967919v-74.77539c1.537379.11396 3.184919.33178 4.831209.33178 1.53737 0 3.07474-.21782 4.82994-.33178v69.61492zm68.9235-71.26248h-2.52515l-34.25913 76.75346c1.20812-.1089 2.41624-.33179 3.84343-.33179 1.31704 0 2.52515.22289 4.06126.33179 3.07602-10.31839 7.02835-19.98459 10.87179-29.64573h27.88928c4.39177 9.99293 8.34412 20.53419 11.52904 29.64573 1.86537-.1089 3.73199-.33179 5.81772-.33179 1.86788 0 3.62561.22289 5.71132.33179zm-15.92208 42.49687 11.96846-28.11217 12.18883 28.11217zm116.03881-40.85059v56.55105h-1.09795l-52.15673-56.55105h-4.28414v75.10718c.98903-.1089 1.97681-.33179 3.07474-.33179.98904 0 1.97934.22289 3.07728.33179v-59.18257h1.09542l47.43444 52.48474c2.30732 2.52261 4.50449 5.1592 5.71133 6.69783h3.29256v-75.10718c-1.0954.11397-2.08445.33179-3.07221.33179-1.09793 0-2.08824-.21782-3.07474-.33179zm74.04088 6.5902c-9.22297-7.68687-20.31384-6.58892-31.73398-6.58892h-24.9247v74.77539h21.40926c11.63922 0 23.82803-.21782 33.16372-8.34032 8.23394-7.25251 13.83383-17.1302 13.83383-32.39124 0-10.43362-3.51418-20.64437-11.74813-27.45491zm-14.82286 60.6123c-8.89372 4.50194-22.50974 3.18618-32.17341 2.63658v-65.44604c4.72229-.1089 9.33441-.4407 13.83636-.4407 24.59545 0 34.14769 8.45936 34.14769 31.73399-.00088 13.39567-3.95361 25.58448-15.81064 31.51617z"/></g></svg>